<svg width="307" height="317" viewBox="0 0 307 317" fill="none" xmlns="http://www.w3.org/2000/svg">
<mask id="path-1-outside-1_87_2786" maskUnits="userSpaceOnUse" x="-34" y="-19" width="375" height="355" fill="black">
<rect fill="white" x="-34" y="-19" width="375" height="355"/>
<path d="M100.003 0.232324L151.973 92.4167H154.447L207.036 0.232324H302.932L208.273 158.616L306.644 317H208.273L154.447 222.96H151.973L98.1469 317H0.394341L97.5282 158.616L3.48778 0.232324H100.003Z"/>
</mask>
<path d="M100.003 0.232324L151.973 92.4167H154.447L207.036 0.232324H302.932L208.273 158.616L306.644 317H208.273L154.447 222.96H151.973L98.1469 317H0.394341L97.5282 158.616L3.48778 0.232324H100.003Z" fill="#EA0A2C"/>
<path d="M100.003 0.23233L116.554 -9.09845L111.103 -18.7677H100.003V0.23233ZM151.973 92.4167L135.422 101.747L140.873 111.417H151.973V92.4167ZM154.447 92.4167V111.417H165.483L170.951 101.831L154.447 92.4167ZM207.036 0.23233V-18.7677H196L190.532 -9.18239L207.036 0.23233ZM302.932 0.23233L319.241 9.97961L336.422 -18.7677H302.932V0.23233ZM208.273 158.616L191.964 148.869L186.025 158.806L192.133 168.641L208.273 158.616ZM306.644 317V336H340.812L322.785 306.975L306.644 317ZM208.273 317L191.783 326.438L197.256 336H208.273V317ZM154.447 222.96L170.937 213.521L165.465 203.96H154.447V222.96ZM151.973 222.96V203.96H140.955L135.483 213.521L151.973 222.96ZM98.1469 317V336H109.164L114.637 326.438L98.1469 317ZM0.394341 317L-15.8024 307.067L-33.5465 336H0.394341V317ZM97.5282 158.616L113.725 168.549L119.719 158.775L113.865 148.916L97.5282 158.616ZM3.48778 0.23233V-18.7677H-29.8902L-12.8495 9.93256L3.48778 0.23233ZM83.4519 9.5631L135.422 101.747L168.524 83.0859L116.554 -9.09845L83.4519 9.5631ZM151.973 111.417H154.447V73.4167H151.973V111.417ZM170.951 101.831L223.539 9.64703L190.532 -9.18239L137.944 83.002L170.951 101.831ZM207.036 19.2323H302.932V-18.7677H207.036V19.2323ZM286.623 -9.51497L191.964 148.869L224.582 168.363L319.241 9.97961L286.623 -9.51497ZM192.133 168.641L290.504 327.025L322.785 306.975L224.413 148.592L192.133 168.641ZM306.644 298H208.273V336H306.644V298ZM224.763 307.562L170.937 213.521L137.957 232.398L191.783 326.438L224.763 307.562ZM154.447 203.96H151.973V241.96H154.447V203.96ZM135.483 213.521L81.6569 307.562L114.637 326.438L168.463 232.398L135.483 213.521ZM98.1469 298H0.394341V336H98.1469V298ZM16.591 326.933L113.725 168.549L81.3315 148.683L-15.8024 307.067L16.591 326.933ZM113.865 148.916L19.825 -9.46791L-12.8495 9.93256L81.1909 168.316L113.865 148.916ZM3.48778 19.2323H100.003V-18.7677H3.48778V19.2323Z" fill="#EA0A2C" mask="url(#path-1-outside-1_87_2786)"/>
</svg>
